<svg width="128" height="36" viewBox="0 0 128 36" fill="none" xmlns="http://www.w3.org/2000/svg">
<path d="M8.79884 3H3V8.80093H8.79884V3Z" fill="#4FD66E"/>
<path d="M8.79884 10.9502H3V33H8.79884V10.9502Z" fill="#4FD66E"/>
<path d="M13.7735 8.79676C13.7735 9.75663 13.7568 10.1969 13.3499 10.5558C12.9764 10.8855 12.4276 10.9502 11.5429 10.9502V14.3556C11.7453 14.3556 11.9414 14.3556 12.1292 14.3577H12.221C12.3212 14.3577 12.3421 14.3619 12.3567 14.364C12.3734 14.364 12.3796 14.3661 12.4839 14.364C14.0573 14.2951 15.0693 14.2033 16.0375 13.2455C16.724 12.5674 17.3396 11.6826 17.3396 8.35439V3H11.5408V8.80093L13.7693 8.78633V8.79676H13.7735Z" fill="#4FD66E"/>
<path d="M44.0281 17.3354C44.6374 18.0991 44.9483 19.2447 44.9483 20.7367V33.0021H50.8056V18.6375C50.8056 15.9937 50.1754 13.9633 48.9318 12.6049C47.6902 11.2465 45.9437 10.5579 43.7422 10.5579C42.388 10.5579 41.3509 10.8146 40.1594 11.4447C38.993 12.0603 38.198 12.9993 37.3529 14.0718L37.2903 14.1511L37.2464 14.0593C36.7039 12.9388 35.9235 12.0645 34.9281 11.4635C33.9307 10.8626 32.7309 10.5558 31.3579 10.5558C30.6087 10.5558 30.1622 10.6539 29.555 10.8459C28.8831 11.0587 28.3426 11.2715 27.9023 11.6263C27.364 12.0582 27.0677 12.3691 26.7109 12.7885C26.2539 13.3248 26.0139 13.6295 25.68 14.0927L25.5653 14.2534V10.9711H19.708V33H25.5653V20.7346C25.5653 19.2405 25.895 18.097 26.546 17.3333C27.1365 16.6384 27.7813 16.1773 29.0062 16.1773C30.2311 16.1773 30.8529 16.6405 31.41 17.3354C32.0193 18.0991 32.3302 19.2447 32.3302 20.7367V33.0021H38.1875V20.7367C38.1875 19.2426 38.5172 18.0991 39.1683 17.3354C39.7588 16.6405 40.4036 16.1794 41.6305 16.1794C42.8575 16.1794 43.4772 16.6426 44.0344 17.3375" fill="#4FD66E"/>
<path d="M76.171 14.1136C75.305 13.0348 74.2033 12.1625 72.8949 11.5219C71.5887 10.8834 70.0174 10.5579 68.2291 10.5579C66.6537 10.5579 65.1993 10.8563 63.9056 11.4426C62.6118 12.029 61.4809 12.8407 60.546 13.8548C59.6112 14.8689 58.8746 16.0729 58.3529 17.4335C57.8313 18.794 57.5684 20.2567 57.5684 21.7779V21.8593C57.5684 23.514 57.8521 25.0373 58.4135 26.3832C58.9748 27.7291 59.7656 28.9143 60.7672 29.9013C61.7667 30.8883 62.9728 31.6583 64.3458 32.1924C65.721 32.7266 67.2317 32.9979 68.8364 32.9979C70.7853 32.9979 72.5047 32.639 73.9487 31.9337C75.4511 31.1971 76.5048 30.3791 77.8278 29.1897L74.5392 25.9784C73.3269 26.7546 72.4922 27.318 71.693 27.6623C70.8792 28.0149 69.9465 28.1923 68.9156 28.1923C67.5322 28.1923 66.3553 27.8271 65.4163 27.1072C64.4773 26.3873 63.8513 25.3064 63.5529 23.8959L63.5362 23.8207H78.6499C78.675 23.5432 78.6917 23.2782 78.7042 23.032C78.7167 22.7649 78.7251 22.5082 78.7251 22.2662C78.7251 20.7408 78.5143 19.2572 78.1011 17.857C77.688 16.4569 77.039 15.1986 76.171 14.1177V14.1136ZM63.459 20.1002L63.4715 20.0272C63.7157 18.6187 64.2457 17.4794 65.0449 16.6384C65.8503 15.7933 66.9208 15.3656 68.227 15.3656C69.5333 15.3656 70.5975 15.8017 71.3904 16.6593C72.1771 17.5148 72.6737 18.6479 72.8636 20.0293L72.874 20.1002H63.4611H63.459Z" fill="#4FD66E"/>
<path d="M95.3913 27.1865C94.6234 27.608 93.7157 27.8209 92.6932 27.8209C91.8586 27.8209 91.0928 27.6623 90.4188 27.3493C89.7469 27.0384 89.1584 26.6044 88.6722 26.0597C88.1881 25.5172 87.8125 24.8724 87.5559 24.1379C87.3013 23.4097 87.1719 22.6126 87.1719 21.7716V21.6903C87.1719 20.8765 87.3013 20.1002 87.5559 19.3845C87.8105 18.6667 88.1798 18.0261 88.6514 17.4835C89.123 16.941 89.6843 16.507 90.3165 16.1961C90.9509 15.8831 91.6687 15.7245 92.4512 15.7245C93.553 15.7245 94.4899 15.9457 95.2327 16.3797C95.9526 16.8012 96.6642 17.375 97.3465 18.0803L100.994 14.1282C99.9945 13.0264 98.826 12.1479 97.5197 11.5157C96.1968 10.8772 94.5045 10.5516 92.4908 10.5516C90.8486 10.5516 89.3254 10.85 87.9607 11.4364C86.596 12.0227 85.4087 12.8344 84.43 13.8486C83.4514 14.8627 82.671 16.0667 82.1159 17.4272C81.5609 18.7877 81.2771 20.2484 81.2771 21.7696V21.8509C81.2771 23.3721 81.5588 24.8265 82.1159 26.1724C82.6731 27.5204 83.4514 28.7119 84.43 29.7114C85.4108 30.713 86.6002 31.5164 87.9628 32.1027C89.3275 32.6891 90.8236 32.9875 92.4136 32.9875C94.5316 32.9875 96.2781 32.616 97.6011 31.8836C98.9094 31.1575 100.093 30.2185 101.117 29.0896L97.6303 25.536C96.8979 26.2162 96.1446 26.7713 95.3955 27.1824L95.3913 27.1865Z" fill="#4FD66E"/>
<path d="M121.621 13.7943C120.634 12.7948 119.444 11.9977 118.084 11.4218C116.723 10.8479 115.229 10.5579 113.639 10.5579C112.049 10.5579 110.515 10.8563 109.157 11.4426C107.799 12.029 106.601 12.8407 105.601 13.8548C104.6 14.871 103.807 16.0688 103.246 17.4126C102.682 18.7585 102.396 20.2254 102.396 21.7758V21.8572C102.396 23.4076 102.682 24.8745 103.246 26.2204C103.807 27.5663 104.593 28.7557 105.583 29.7594C106.572 30.761 107.761 31.5581 109.119 32.1319C110.478 32.7058 111.974 32.9958 113.564 32.9958C115.154 32.9958 116.688 32.6974 118.046 32.1111C119.405 31.5247 120.602 30.713 121.602 29.6989C122.601 28.6868 123.394 27.4891 123.96 26.1411C124.523 24.7931 124.809 23.3262 124.809 21.7779V21.6965C124.809 20.1503 124.523 18.6834 123.96 17.3333C123.394 15.9853 122.608 14.7959 121.623 13.7943H121.621ZM119.104 21.8572C119.104 22.6689 118.979 23.4431 118.731 24.1609C118.482 24.8808 118.119 25.5193 117.65 26.0618C117.178 26.6064 116.602 27.0405 115.939 27.3514C115.273 27.6644 114.499 27.823 113.639 27.823C112.779 27.823 112.043 27.6581 111.377 27.3305C110.712 27.005 110.123 26.5584 109.629 26.0013C109.132 25.4442 108.75 24.7994 108.489 24.0816C108.228 23.3658 108.097 22.5896 108.097 21.7758V21.6944C108.097 20.8806 108.222 20.1065 108.471 19.3887C108.717 18.6708 109.082 18.0323 109.551 17.4877C110.021 16.9452 110.597 16.5112 111.262 16.1982C111.928 15.8852 112.702 15.7266 113.562 15.7266C114.372 15.7266 115.125 15.8914 115.803 16.2169C116.479 16.5425 117.074 16.989 117.573 17.5461C118.069 18.1033 118.451 18.7501 118.712 19.4659C118.973 20.1858 119.104 20.962 119.104 21.7716V21.853V21.8572Z" fill="#4FD66E"/>
</svg>
